<svg height="512pt" viewBox="0 0 512 512" width="512pt" xmlns="http://www.w3.org/2000/svg"><linearGradient id="a" gradientUnits="userSpaceOnUse" x1="0" x2="512" y1="256" y2="256"><stop offset="0" stop-color="#00f1ff"/><stop offset=".231" stop-color="#00d8ff"/><stop offset=".5138" stop-color="#00c0ff"/><stop offset=".7773" stop-color="#00b2ff"/><stop offset="1" stop-color="#00adff"/></linearGradient><path d="m512 256c0 141.386719-114.613281 256-256 256s-256-114.613281-256-256 114.613281-256 256-256 256 114.613281 256 256zm0 0" fill="url(#a)"/><g fill="#fff"><path d="m421.167969 293.195312c8.285156 0 15-6.714843 15-15v-30.09375c0-21.132812-11.566407-39.597656-28.695313-49.441406v-48.542968c0-8.28125-6.714844-15-15-15h-40.988281v-47.285157c0-8.285156-6.714844-15-15-15h-160.96875c-8.285156 0-15 6.714844-15 15v47.285157h-40.988281c-8.285156 0-15 6.71875-15 15v48.542968c-17.128906 9.84375-28.695313 28.308594-28.695313 49.441406v100.082032c0 31.425781 25.566407 56.992187 56.992188 56.992187h27.691406v12.992188c0 8.285156 6.714844 15 15 15h160.96875c8.285156 0 15-6.714844 15-15v-12.992188h27.691406c31.425781 0 56.992188-25.566406 56.992188-56.992187 0-8.285156-6.714844-15-15-15-8.28125 0-15 6.714844-15 15 0 14.882812-12.105469 26.992187-26.992188 26.992187h-27.691406v-56.085937h13.695313c8.285156 0 15-6.714844 15-15 0-8.28125-6.714844-15-15-15h-218.359376c-8.285156 0-15 6.71875-15 15 0 8.285156 6.714844 15 15 15h13.695313v56.085937h-27.691406c-14.886719 0-26.992188-12.109375-26.992188-26.992187v-100.082032c0-14.882812 12.105469-26.992187 26.992188-26.992187h246.351562c14.886719 0 26.992188 12.109375 26.992188 26.992187v30.09375c0 8.285157 6.71875 15 15 15zm-99.683594 25.894532v84.078125h-130.96875v-84.078125zm55.988281-153.972656v25.992187h-25.988281v-25.992187zm-55.988281-62.285157v88.277344h-130.96875v-88.277344zm-160.96875 62.285157v25.992187h-25.988281v-25.992187zm0 0"/><path d="m224.507812 165.117188h62.984376c8.285156 0 15-6.714844 15-15 0-8.28125-6.714844-15-15-15h-62.984376c-8.285156 0-15 6.71875-15 15 0 8.285156 6.714844 15 15 15zm0 0"/></g></svg>
