<svg height="512pt" viewBox="0 0 512.00022 512" width="512pt" xmlns="http://www.w3.org/2000/svg"><path d="m412.613281 14.664062c-51.558593 14.636719-89.320312 62.066407-89.320312 118.320313 0 56.25 37.765625 103.679687 89.320312 118.320313 51.558594-14.640626 89.324219-62.070313 89.324219-118.320313s-37.765625-103.683594-89.324219-118.320313zm0 0" fill="#e889c3"/><path d="m166.644531 260.632812c-51.558593 14.636719-89.320312 62.066407-89.320312 118.320313 0 56.25 37.765625 103.679687 89.320312 118.320313 51.558594-14.640626 89.324219-62.070313 89.324219-118.320313s-37.765625-103.683594-89.324219-118.320313zm0 0" fill="#ffb954"/><path d="m412.613281 260.632812c-51.558593 14.636719-89.320312 62.066407-89.320312 118.320313 0 56.25 37.765625 103.679687 89.320312 118.320313 51.558594-14.640626 89.324219-62.070313 89.324219-118.320313s-37.765625-103.683594-89.324219-118.320313zm0 0" fill="#898998"/><path d="m166.644531 14.664062c-51.558593 14.636719-89.320312 62.066407-89.320312 118.320313 0 56.25 37.765625 103.679687 89.320312 118.320313 51.558594-14.640626 89.324219-62.070313 89.324219-118.320313s-37.765625-103.683594-89.324219-118.320313zm0 0" fill="#72d8ff"/><path d="m125.316406 94.988281h15.335938c8.066406 0 14.628906 6.5625 14.628906 14.628907 0 5.523437 4.476562 10 10 10 5.519531 0 9.996094-4.476563 9.996094-10 0-19.09375-15.53125-34.625-34.625-34.625h-15.335938c-19.09375 0-34.628906 15.53125-34.628906 34.625v46.730468c0 19.09375 15.535156 34.628906 34.628906 34.628906h15.335938c19.09375 0 34.625-15.535156 34.625-34.628906 0-5.523437-4.476563-10-9.996094-10-5.523438 0-10 4.476563-10 10 0 8.066406-6.5625 14.628906-14.628906 14.628906h-15.335938c-8.066406 0-14.632812-6.5625-14.632812-14.628906v-46.730468c0-8.066407 6.566406-14.628907 14.632812-14.628907zm0 0"/><path d="m132.984375 19.996094h.125c5.519531 0 9.996094-4.476563 9.996094-9.996094 0-5.523438-4.476563-10-9.996094-10h-.125c-5.523437 0-10 4.476562-10 10 0 5.519531 4.476563 9.996094 10 9.996094zm0 0"/><path d="m458.84375 458.84375-.085938.089844c-3.90625 3.902344-3.90625 10.234375 0 14.140625 1.953126 1.953125 4.511719 2.925781 7.070313 2.925781s5.117187-.972656 7.070313-2.925781l.085937-.089844c3.90625-3.902344 3.90625-10.234375 0-14.140625-3.902344-3.90625-10.234375-3.90625-14.140625 0zm0 0"/><path d="m472.984375 284.917969c-12.621094-12.625-27.339844-22.394531-43.363281-28.992188 48.265625-19.964843 82.3125-67.550781 82.3125-122.941406 0-73.328125-59.65625-132.984375-132.980469-132.984375-55.410156 0-103.003906 34.066406-122.960937 82.351562-4.277344-10.371093-9.882813-20.238281-16.796876-29.398437-16.933593-22.441406-41.011718-39.246094-67.796874-47.316406-5.285157-1.59375-10.863282 1.402343-12.457032 6.6875-1.59375 5.289062 1.402344 10.867187 6.6875 12.457031 47.304688 14.253906 80.339844 58.746094 80.339844 108.203125 0 62.300781-50.683594 112.984375-112.984375 112.984375s-112.988281-50.683594-112.988281-112.984375c0-48.738281 31.042968-91.828125 77.246094-107.21875 5.238281-1.746094 8.070312-7.410156 6.324218-12.648437-1.746094-5.238282-7.40625-8.070313-12.644531-6.324219-54.382813 18.117187-90.921875 68.832031-90.921875 126.191406 0 55.429687 34.09375 103.042969 82.414062 122.984375-48.320312 19.9375-82.414062 67.550781-82.414062 122.984375 0 73.324219 59.65625 132.980469 132.984375 132.980469 55.390625 0 102.976563-34.046875 122.941406-82.3125 6.597657 16.027344 16.367188 30.742187 28.992188 43.363281 20.609375 20.613281 46.726562 33.636719 75.519531 37.664063 6.066406.847656 12.1875 1.265624 18.300781 1.265624 21.941407 0 43.824219-5.398437 63.097657-15.75 4.863281-2.613281 6.691406-8.675781 4.078124-13.539062-2.613281-4.867188-8.675781-6.691406-13.539062-4.078125-43.523438 23.367187-98.347656 15.265625-133.316406-19.703125-44.054688-44.054688-44.054688-115.734375 0-159.785156 44.054687-44.054688 115.734375-44.054688 159.785156 0 34.464844 34.460937 42.980469 86.878906 21.195312 130.433594-2.46875 4.941406-.46875 10.945312 4.472657 13.417968 4.9375 2.46875 10.945312.464844 13.414062-4.472656 25.640625-51.265625 15.617188-112.960938-24.941406-153.519531zm-94.03125-264.921875c62.300781 0 112.984375 50.6875 112.984375 112.988281s-50.683594 112.984375-112.984375 112.984375-112.988281-50.683594-112.988281-112.984375 50.6875-112.988281 112.988281-112.988281zm-245.96875 471.941406c-62.300781 0-112.988281-50.683594-112.988281-112.984375s50.6875-112.988281 112.988281-112.988281 112.984375 50.6875 112.984375 112.988281-50.683594 112.984375-112.984375 112.984375zm151.933594-207.019531c-12.621094 12.625-22.390625 27.339843-28.992188 43.363281-13.515625-32.671875-39.6875-58.824219-72.375-72.316406 32.722657-13.5 58.914063-39.691406 72.417969-72.414063 13.488281 32.6875 39.640625 58.859375 72.3125 72.375-16.023438 6.597657-30.738281 16.367188-43.363281 28.992188zm0 0"/><path d="m344.957031 190.976562c5.519531 0 9.996094-4.476562 9.996094-10v-71.847656l16.929687 16.925782c3.902344 3.90625 10.234376 3.90625 14.140626 0l16.925781-16.925782v71.847656c0 5.523438 4.476562 10 10 10 5.519531 0 9.996093-4.476562 9.996093-10v-95.988281c0-4.042969-2.4375-7.6875-6.171874-9.238281-3.738282-1.546875-8.035157-.691406-10.894532 2.167969l-26.925781 26.925781-26.925781-26.925781c-2.859375-2.859375-7.164063-3.714844-10.898438-2.167969-3.734375 1.550781-6.171875 5.195312-6.171875 9.238281v95.988281c0 5.523438 4.476563 10 10 10zm0 0"/><path d="m159.910156 328.886719-26.925781 26.925781-26.925781-26.925781c-3.90625-3.90625-10.238282-3.90625-14.140625 0-3.90625 3.902343-3.90625 10.234375 0 14.140625l31.066406 31.066406v57.851562c0 5.519532 4.476563 9.996094 10 9.996094 5.519531 0 9.996094-4.476562 9.996094-9.996094v-57.851562l31.070312-31.066406c3.902344-3.902344 3.902344-10.234375 0-14.140625-3.90625-3.90625-10.238281-3.90625-14.140625 0zm0 0"/><path d="m415.019531 328.886719c-3.90625-3.90625-10.238281-3.90625-14.140625 0l-30.925781 30.925781v-23.855469c0-5.523437-4.476563-10-10-10-5.519531 0-9.996094 4.476563-9.996094 10v47.988281.011719 47.988281c0 5.523438 4.476563 10 9.996094 10 5.523437 0 10-4.476562 10-10v-23.855468l30.925781 30.925781c1.953125 1.953125 4.511719 2.929687 7.070313 2.929687 2.558593 0 5.117187-.976562 7.070312-2.929687 3.902344-3.902344 3.902344-10.234375 0-14.140625l-40.925781-40.921875 40.925781-40.925781c3.902344-3.902344 3.902344-10.234375 0-14.140625zm0 0"/></svg>