<?xml version="1.0" encoding="iso-8859-1"?>
<!-- Generator: Adobe Illustrator 19.0.0, SVG Export Plug-In . SVG Version: 6.00 Build 0)  -->
<svg version="1.1" id="Capa_1" xmlns="http://www.w3.org/2000/svg" x="0px" y="0px"
     viewBox="0 0 512.001 512.001" style="enable-background:new 0 0 512.001 512.001;"
     xml:space="preserve">
<path style="fill:#72D8FF;" d="M10,203.559c0,56.584,45.87,102.454,102.454,102.454s102.454-45.87,102.454-102.454
	c0-24.529-8.624-47.04-23-64.679h0.007L112.454,37.031L33.372,138.347h0.059C18.794,156.063,10,178.784,10,203.559z"/>
<path style="fill:#E889C3;" d="M287.605,138.88h0.007L208.151,37.031l-47.86,61.315l31.624,40.534h-0.007
	c14.376,17.638,23,40.15,23,64.679c0,39.299-22.13,73.424-54.605,90.609c14.283,7.558,30.564,11.845,47.849,11.845
	c56.584,0,102.454-45.87,102.454-102.454C310.605,179.03,301.981,156.519,287.605,138.88z"/>
<path style="fill:#FFB954;" d="M383.303,138.88h0.007L303.849,37.031l-47.86,61.315l31.624,40.534h-0.007
	c14.376,17.638,23,40.15,23,64.679c0,39.299-22.13,73.424-54.605,90.609c14.283,7.558,30.564,11.845,47.849,11.845
	c56.584,0,102.454-45.87,102.454-102.454C406.302,179.03,397.678,156.519,383.303,138.88z"/>
<path style="fill:#898998;" d="M479,138.88h0.007L399.546,37.031l-47.86,61.315l31.624,40.534h-0.007
	c14.376,17.638,23,40.15,23,64.679c0,39.299-22.13,73.424-54.605,90.609c14.283,7.558,30.564,11.845,47.849,11.845
	c56.584,0,102.454-45.87,102.454-102.454C502,179.03,493.376,156.519,479,138.88z"/>
<path d="M486.985,132.851c-0.03-0.041-0.062-0.081-0.093-0.122L407.43,30.88c-1.895-2.428-4.803-3.848-7.883-3.849h-0.001
	c-3.08,0-5.988,1.419-7.883,3.847l-39.975,51.214L311.733,30.88c-1.896-2.428-4.804-3.848-7.884-3.849h-0.001
	c-3.079,0-5.988,1.419-7.883,3.847L255.99,82.091L216.036,30.88c-1.896-2.428-4.804-3.848-7.884-3.849h-0.001
	c-3.079,0-5.988,1.419-7.883,3.847L160.303,82.08l-39.966-51.202c-1.896-2.428-4.804-3.848-7.884-3.847s-5.988,1.42-7.884,3.849
	L54.071,95.605c-3.396,4.354-2.621,10.639,1.733,14.036c4.353,3.397,10.638,2.621,14.036-1.733l42.615-54.623l39.589,50.72
	c0.217,0.316,0.456,0.619,0.712,0.912l30.276,38.788c0.222,0.349,0.467,0.687,0.734,1.01c13.632,16.5,21.14,37.398,21.14,58.843
	c0,50.979-41.475,92.454-92.453,92.454C61.475,296.013,20,254.538,20,203.559c0-6.386,0.653-12.761,1.942-18.947
	c1.126-5.407-2.344-10.703-7.751-11.83c-5.401-1.123-10.702,2.345-11.829,7.75C0.795,188.058,0,195.805,0,203.559
	c0,62.007,50.446,112.454,112.454,112.454c17.095,0,33.308-3.841,47.83-10.695c14.89,7.002,31.327,10.695,47.867,10.695
	c17.095,0,33.308-3.841,47.831-10.695c14.89,7.002,31.326,10.695,47.867,10.695c17.095,0,33.308-3.841,47.831-10.695
	c14.89,7.002,31.326,10.695,47.867,10.695c62.008,0,112.454-50.446,112.454-112.454C512,177.877,503.118,152.781,486.985,132.851z
	 M181.664,292.132c26.307-20.601,43.243-52.645,43.243-88.573c0-25.733-8.893-50.824-25.059-70.771
	c-0.135-0.202-0.278-0.4-0.43-0.594l-26.431-33.862l35.162-45.046l71.372,91.481c0.106,0.146,0.217,0.29,0.332,0.431
	c13.382,16.42,20.752,37.146,20.752,58.361c0,50.979-41.475,92.454-92.454,92.454C199.168,296.013,190.227,294.684,181.664,292.132z
	 M277.362,292.132c26.307-20.601,43.244-52.646,43.244-88.573c0-25.688-8.887-50.792-25.029-70.727
	c-0.026-0.034-0.053-0.069-0.079-0.103l-26.824-34.382l35.173-45.062l71.372,91.481c0.106,0.146,0.218,0.29,0.333,0.432
	c13.381,16.418,20.751,37.145,20.751,58.361c0,50.979-41.475,92.454-92.454,92.454C294.866,296.013,285.924,294.684,277.362,292.132
	z M399.546,296.013c-8.983,0-17.924-1.329-26.487-3.881c26.307-20.601,43.244-52.646,43.244-88.573
	c0-25.691-8.886-50.793-25.03-70.728c-0.025-0.034-0.052-0.068-0.078-0.103l-26.823-34.381l35.173-45.062l71.359,91.463
	c0.11,0.152,0.226,0.302,0.345,0.449C484.63,161.617,492,182.343,492,203.559C492,254.538,450.525,296.013,399.546,296.013z"/>
<path d="M106.063,404.969h12.782c5.805,0,10.526,4.722,10.526,10.527c0,5.523,4.478,10,10,10s10-4.477,10-10
	c0-16.833-13.694-30.527-30.526-30.527h-12.782c-16.832,0-30.526,13.694-30.526,30.527v38.946c0,16.833,13.694,30.527,30.526,30.527
	h12.782c16.832,0,30.526-13.694,30.526-30.527c0-5.523-4.478-10-10-10s-10,4.477-10,10c0,5.805-4.722,10.527-10.526,10.527h-12.782
	c-5.805,0-10.526-4.722-10.526-10.527v-38.946C95.536,409.691,100.258,404.969,106.063,404.969z"/>
<path d="M246.563,385.73c-3.737-1.549-8.038-0.692-10.898,2.168l-21.262,21.262l-21.262-21.262
	c-2.859-2.86-7.161-3.717-10.898-2.168c-3.736,1.548-6.173,5.194-6.173,9.239v80c0,5.523,4.478,10,10,10s10-4.477,10-10v-55.857
	l11.262,11.262c1.876,1.875,4.419,2.929,7.071,2.929s5.195-1.054,7.071-2.929l11.262-11.262v55.857c0,5.523,4.478,10,10,10
	s10-4.477,10-10v-80C252.736,390.924,250.3,387.278,246.563,385.73z"/>
<path d="M336.615,387.897l-21.263,21.263l-21.262-21.262c-3.905-3.905-10.235-3.905-14.143,0c-3.905,3.905-3.905,10.237,0,14.142
	l25.404,25.405v47.524c0,5.523,4.478,10,10,10s10-4.477,10-10v-47.524l25.405-25.405c3.905-3.905,3.905-10.237,0-14.142
	C346.854,383.993,340.523,383.993,336.615,387.897z"/>
<path d="M433.374,387.897c-3.906-3.905-10.236-3.905-14.143,0l-22.929,22.929v-15.857c0-5.523-4.478-10-10-10s-10,4.477-10,10
	v39.995c0,0.003,0,0.007,0,0.01v39.995c0,5.523,4.478,10,10,10s10-4.477,10-10v-15.857l22.929,22.929
	c1.953,1.953,4.512,2.929,7.071,2.929s5.118-0.976,7.071-2.929c3.905-3.905,3.905-10.237,0-14.143l-32.929-32.929l32.929-32.929
	C437.279,398.135,437.279,391.803,433.374,387.897z"/>
<path d="M32.993,148.88H33c3.312,0,6.245-1.609,8.064-4.088l0.167-0.214c3.395-4.357,2.614-10.64-1.743-14.035
	c-4.355-3.394-10.639-2.614-14.034,1.743l-0.35,0.449c-2.348,3.014-2.773,7.103-1.097,10.536
	C25.686,146.703,29.172,148.88,32.993,148.88z"/>
<g>
</g>
<g>
</g>
<g>
</g>
<g>
</g>
<g>
</g>
<g>
</g>
<g>
</g>
<g>
</g>
<g>
</g>
<g>
</g>
<g>
</g>
<g>
</g>
<g>
</g>
<g>
</g>
<g>
</g>
</svg>
