<?xml version="1.0" encoding="iso-8859-1"?>
<!-- Generator: Adobe Illustrator 19.0.0, SVG Export Plug-In . SVG Version: 6.00 Build 0)  -->
<svg version="1.1" id="Capa_1" xmlns="http://www.w3.org/2000/svg" x="0px" y="0px"
     viewBox="0 0 512 512" style="enable-background:new 0 0 512 512;" xml:space="preserve">
<circle style="fill:#303C42;" cx="256" cy="256" r="256"/>
<path style="fill:#00AEEF;" d="M490.129,245.333H266.667V21.871C387.721,27.328,484.672,124.279,490.129,245.333z"/>
<path style="fill:#EC008C;" d="M245.333,21.871v223.462H21.871C27.328,124.279,124.279,27.328,245.333,21.871z"/>
<path style="fill:#FFF200;" d="M21.871,266.667h223.462v223.462C124.279,484.672,27.328,387.721,21.871,266.667z"/>
<path style="fill:#231F20;" d="M266.667,490.129V266.667h223.462C484.672,387.721,387.721,484.672,266.667,490.129z"/>
<path style="opacity:0.1;enable-background:new    ;" d="M456.233,245.333h33.896c-2.602-57.725-26.172-109.816-63.076-149.272
	c19.988,34.53,31.613,74.504,31.613,117.272C458.667,224.217,457.667,234.844,456.233,245.333z"/>
<path style="opacity:0.1;enable-background:new    ;" d="M54.276,375.098c39.077,66.087,109.53,111.355,191.057,115.031v-43.206
	C238.297,447.559,231.202,448,224,448C157.172,448,97.016,419.927,54.276,375.098z"/>
<path style="opacity:0.1;enable-background:new    ;" d="M266.667,443.938v46.191c121.055-5.457,218.005-102.408,223.462-223.462
	h-37.784C431.337,356.905,358.419,427.057,266.667,443.938z"/>
<linearGradient id="SVGID_1_" gradientUnits="userSpaceOnUse" x1="-45.5818" y1="639.5562" x2="-23.8245" y2="629.4125" gradientTransform="matrix(21.3333 0 0 -21.3333 996.3334 13791.667)">
	<stop  offset="0" style="stop-color:#FFFFFF;stop-opacity:0.2"/>
	<stop  offset="1" style="stop-color:#FFFFFF;stop-opacity:0"/>
</linearGradient>
<circle style="fill:url(#SVGID_1_);" cx="256" cy="256" r="256"/>
<g>
</g>
<g>
</g>
<g>
</g>
<g>
</g>
<g>
</g>
<g>
</g>
<g>
</g>
<g>
</g>
<g>
</g>
<g>
</g>
<g>
</g>
<g>
</g>
<g>
</g>
<g>
</g>
<g>
</g>
</svg>
