<?xml version="1.0" encoding="iso-8859-1"?>
<!-- Generator: Adobe Illustrator 19.0.0, SVG Export Plug-In . SVG Version: 6.00 Build 0)  -->
<svg version="1.1" id="Capa_1" xmlns="http://www.w3.org/2000/svg" x="0px" y="0px"
     viewBox="0 0 512 512" style="enable-background:new 0 0 512 512;" xml:space="preserve">
<circle style="fill:#E889C3;" cx="378.952" cy="133.013" r="122.984"/>
<circle style="fill:#FFB954;" cx="132.983" cy="378.982" r="122.984"/>
<circle style="fill:#898998;" cx="378.952" cy="378.982" r="122.984"/>
<circle style="fill:#72D8FF;" cx="132.983" cy="133.013" r="122.984"/>
<path d="M125.315,95.021h15.336c8.067,0,14.63,6.563,14.63,14.63c0,5.522,4.476,9.999,9.999,9.999s9.999-4.476,9.999-9.999
	c0-19.094-15.534-34.628-34.628-34.628h-15.336c-19.094,0-34.628,15.534-34.628,34.628v46.73c0,19.094,15.534,34.628,34.628,34.628
	h15.336c19.094,0,34.628-15.534,34.628-34.628c0-5.522-4.476-9.999-9.999-9.999s-9.999,4.476-9.999,9.999
	c0,8.067-6.563,14.63-14.63,14.63h-15.336c-8.067,0-14.63-6.563-14.63-14.63v-46.73C110.685,101.584,117.248,95.021,125.315,95.021z
	"/>
<path d="M132.983,20.03h0.125c5.522,0,9.999-4.476,9.999-9.999s-4.476-9.999-9.999-9.999h-0.125c-5.522,0-9.999,4.476-9.999,9.999
	S127.461,20.03,132.983,20.03z"/>
<path d="M458.845,458.876l-0.088,0.088c-3.904,3.905-3.904,10.236,0,14.141c1.953,1.953,4.511,2.929,7.07,2.929
	c2.559,0,5.118-0.976,7.07-2.929l0.088-0.088c3.905-3.905,3.905-10.236,0-14.141C469.08,454.972,462.749,454.972,458.845,458.876z"
	/>
<path d="M472.985,284.95c-12.623-12.623-27.339-22.393-43.363-28.992c48.265-19.965,82.313-67.549,82.313-122.942
	c0-73.327-59.656-132.983-132.983-132.983c-55.408,0-103.002,34.066-122.958,82.35c-4.278-10.37-9.884-20.235-16.797-29.397
	c-16.935-22.442-41.013-39.246-67.798-47.316c-5.285-1.593-10.865,1.402-12.457,6.689c-1.593,5.287,1.402,10.865,6.689,12.457
	c47.302,14.251,80.339,58.745,80.339,108.2c0,62.301-50.685,112.986-112.986,112.986S19.997,195.317,19.997,133.016
	c0-48.738,31.042-91.825,77.244-107.219c5.239-1.746,8.071-7.408,6.325-12.646c-1.746-5.238-7.407-8.07-12.646-6.325
	C36.537,24.943,0,75.656,0,133.016C0,188.448,34.096,236.059,82.414,256C34.096,275.941,0,323.552,0,378.984
	c0,73.327,59.656,132.983,132.983,132.983c55.393,0,102.977-34.049,122.942-82.313c6.599,16.024,16.369,30.739,28.992,43.363
	c20.611,20.611,46.725,33.635,75.519,37.662c6.068,0.849,12.186,1.268,18.302,1.268c21.94,0,43.822-5.401,63.096-15.751
	c4.865-2.612,6.691-8.674,4.079-13.539c-2.613-4.865-8.676-6.692-13.539-4.079c-43.524,23.369-98.347,15.269-133.316-19.702
	c-44.053-44.053-44.053-115.733,0-159.786c44.053-44.054,115.732-44.054,159.786,0c34.463,34.462,42.98,86.88,21.195,130.435
	c-2.47,4.938-0.469,10.945,4.47,13.415c4.938,2.471,10.945,0.468,13.415-4.47C523.568,387.205,513.544,325.51,472.985,284.95z
	 M378.952,20.03c62.301,0,112.986,50.685,112.986,112.986s-50.685,112.986-112.986,112.986s-112.986-50.685-112.986-112.986
	S316.651,20.03,378.952,20.03z M132.983,491.97c-62.301,0-112.986-50.685-112.986-112.986s50.685-112.986,112.986-112.986
	s112.986,50.685,112.986,112.986S195.284,491.97,132.983,491.97z M284.919,284.95c-12.623,12.623-22.393,27.339-28.992,43.363
	c-13.516-32.672-39.688-58.824-72.374-72.314c32.72-13.503,58.912-39.695,72.415-72.415c13.489,32.686,39.641,58.858,72.314,72.374
	C312.257,262.557,297.542,272.327,284.919,284.95z"/>
<path d="M344.956,191.008c5.522,0,9.999-4.476,9.999-9.999v-71.849l16.927,16.927c3.904,3.905,10.236,3.905,14.141,0l16.926-16.927
	v71.849c0,5.522,4.476,9.999,9.999,9.999s9.999-4.476,9.999-9.999V85.022c0-4.043-2.437-7.69-6.172-9.238
	c-3.738-1.549-8.037-0.692-10.897,2.167l-26.926,26.926l-26.926-26.926c-2.86-2.859-7.161-3.716-10.897-2.167
	c-3.737,1.548-6.172,5.193-6.172,9.238v95.988C334.957,186.531,339.434,191.008,344.956,191.008z"/>
<path d="M159.909,328.919l-26.926,26.926l-26.926-26.926c-3.905-3.904-10.236-3.904-14.141,0c-3.905,3.905-3.905,10.236,0,14.141
	l31.068,31.067v57.85c0,5.522,4.476,9.999,9.999,9.999c5.522,0,9.999-4.476,9.999-9.999v-57.85l31.067-31.067
	c3.904-3.905,3.904-10.236,0-14.141C170.144,325.014,163.813,325.014,159.909,328.919z"/>
<path d="M415.018,328.919c-3.905-3.904-10.236-3.904-14.141,0l-30.924,30.925V335.99c0-5.522-4.476-9.999-9.999-9.999
	s-9.999,4.476-9.999,9.999v47.989c0,0.003,0,0.007,0,0.01v47.989c0,5.522,4.476,9.999,9.999,9.999s9.999-4.476,9.999-9.999v-23.854
	l30.925,30.925c1.953,1.953,4.511,2.929,7.07,2.929c2.559,0,5.118-0.976,7.07-2.929c3.905-3.905,3.905-10.236,0-14.141
	l-40.924-40.924l40.924-40.924C418.924,339.156,418.924,332.824,415.018,328.919z"/>
<g>
</g>
<g>
</g>
<g>
</g>
<g>
</g>
<g>
</g>
<g>
</g>
<g>
</g>
<g>
</g>
<g>
</g>
<g>
</g>
<g>
</g>
<g>
</g>
<g>
</g>
<g>
</g>
<g>
</g>
</svg>
