<?xml version="1.0" encoding="iso-8859-1"?>
<!-- Generator: Adobe Illustrator 19.0.0, SVG Export Plug-In . SVG Version: 6.00 Build 0)  -->
<svg version="1.1" id="Capa_1" xmlns="http://www.w3.org/2000/svg" xmlns:xlink="http://www.w3.org/1999/xlink" x="0px" y="0px"
	 viewBox="0 0 512 512" style="enable-background:new 0 0 512 512;" xml:space="preserve">
<linearGradient id="SVGID_1_" gradientUnits="userSpaceOnUse" x1="0" y1="258" x2="512" y2="258" gradientTransform="matrix(1 0 0 -1 0 514)">
	<stop  offset="0" style="stop-color:#80D8FF"/>
	<stop  offset="1" style="stop-color:#EA80FC"/>
</linearGradient>
<path style="fill:url(#SVGID_1_);" d="M512,256c0,88.876-25.317,179.671-78.457,248.25c-3.788,4.889-9.625,7.75-15.81,7.75H170
	c-11.046,0-20-8.954-20-20s8.954-20,20-20h237.719C451.411,411.443,472,332.515,472,256c0-76.55-20.604-155.464-64.281-216H170
	c-11.046,0-20-8.954-20-20s8.954-20,20-20h247.733c6.185,0,12.021,2.861,15.81,7.75C486.686,76.333,512,167.134,512,256z
	 M228.487,319.228c-7.811,7.811-7.811,20.474,0,28.284c7.81,7.81,20.474,7.811,28.285,0l77.37-77.37
	c7.789-7.789,7.774-20.51,0-28.284l-77.37-77.37c-7.811-7.811-20.475-7.811-28.285,0s-7.811,20.474,0,28.284L271.716,236H20
	c-11.046,0-20,8.954-20,20c0,11.046,8.954,20,20,20h251.716L228.487,319.228z"/>
<g>
</g>
<g>
</g>
<g>
</g>
<g>
</g>
<g>
</g>
<g>
</g>
<g>
</g>
<g>
</g>
<g>
</g>
<g>
</g>
<g>
</g>
<g>
</g>
<g>
</g>
<g>
</g>
<g>
</g>
</svg>
