<?xml version="1.0" encoding="iso-8859-1"?>
<!-- Generator: Adobe Illustrator 19.0.0, SVG Export Plug-In . SVG Version: 6.00 Build 0)  -->
<svg version="1.1" id="Layer_1" xmlns="http://www.w3.org/2000/svg" xmlns:xlink="http://www.w3.org/1999/xlink" x="0px" y="0px"
	 viewBox="0 0 460 460" style="enable-background:new 0 0 460 460;" xml:space="preserve">
<g id="XMLID_1247_">
	<g id="Printer_6_">
		<path id="XMLID_526_" style="fill:#515056;" d="M120,450L120,450c0,5.523-4.477,10-10,10H80c-5.523,0-10-4.477-10-10l0,0
			c0-5.523,4.477-10,10-10h30C115.523,440,120,444.477,120,450z"/>
		<path id="XMLID_525_" style="fill:#515056;" d="M390,450L390,450c0,5.523-4.477,10-10,10h-30c-5.523,0-10-4.477-10-10l0,0
			c0-5.523,4.477-10,10-10h30C385.523,440,390,444.477,390,450z"/>
		<path id="XMLID_1570_" style="fill:#AAAFAD;" d="M420,250v50h28.769c6.203,0,11.231,5.028,11.231,11.231l0,0
			c0,5.154-3.507,9.646-8.507,10.896L420,330v100c0,11.046-8.954,20-20,20H60c-11.046,0-20-8.954-20-20V330l-31.493-7.873
			c-5-1.25-8.507-5.742-8.507-10.896l0,0C0,305.028,5.028,300,11.231,300H40v-90v-40c0-11.046,8.954-20,20-20h10v-10
			c0-5.523,4.477-10,10-10h110c5.523,0,10,4.477,10,10v10h200c11.046,0,20,8.954,20,20v40v10h28.769
			c6.203,0,11.231,5.028,11.231,11.231l0,0c0,5.154-3.507,9.646-8.507,10.896L420,250z"/>
		<path id="XMLID_512_" style="fill:#66646D;" d="M170,250h-70c-5.523,0-10-4.477-10-10v-30h90v30C180,245.523,175.523,250,170,250z
			"/>
		<path id="XMLID_241_" style="fill:#D2D6D5;" d="M420,170v40H40v-40c0-11.046,8.954-20,20-20h10v-10c0-5.523,4.477-10,10-10h110
			c5.523,0,10,4.477,10,10v10h200C411.046,150,420,158.954,420,170z"/>
		<path id="XMLID_240_" style="fill:#AAAFAD;" d="M200,170v10c0,5.523-4.477,10-10,10H80c-5.523,0-10-4.477-10-10v-10
			c0,5.523,4.477,10,10,10h110C195.523,180,200,175.523,200,170z"/>
		<path id="XMLID_523_" style="fill:#8A8E8C;" d="M300,450h-10V250h10V450z"/>
		<path id="XMLID_524_" style="fill:#8A8E8C;" d="M390,450h-10V250h10V450z"/>
		<path id="XMLID_516_" style="fill:#8A8E8C;" d="M230,340H40v-10h190V340z"/>
		<path id="XMLID_522_" style="fill:#8A8E8C;" d="M420,260H220v-10h200V260z"/>
		<path id="XMLID_517_" style="fill:#8A8E8C;" d="M160,355L160,355c0,2.761-2.239,5-5,5h-40c-2.761,0-5-2.239-5-5l0,0
			c0-2.761,2.239-5,5-5h40C157.761,350,160,352.239,160,355z"/>
		<path id="XMLID_519_" style="fill:#8A8E8C;" d="M160,415L160,415c0,2.761-2.239,5-5,5h-40c-2.761,0-5-2.239-5-5l0,0
			c0-2.761,2.239-5,5-5h40C157.761,410,160,412.239,160,415z"/>
		<path id="XMLID_518_" style="fill:#8A8E8C;" d="M230,400H40v-10h190V400z"/>
		<path id="XMLID_521_" style="fill:#8A8E8C;" d="M230,450h-10V200h10V450z"/>
		<path id="XMLID_509_" style="fill:#AAAFAD;" d="M230,210h-10v-60h10V210z"/>
	</g>
	<g id="Screen">
		<path id="XMLID_505_" style="fill:#AAAFAD;" d="M260,50L260,50c5.523,0,10,4.477,10,10v120c0,5.523-4.477,10-10,10l0,0
			c-5.523,0-10-4.477-10-10V60C250,54.477,254.477,50,260,50z"/>
		<path id="XMLID_504_" style="fill:#AAAFAD;" d="M360,60L360,60c0,5.523-4.477,10-10,10h-90c-5.523,0-10-4.477-10-10l0,0
			c0-5.523,4.477-10,10-10h90C355.523,50,360,54.477,360,60z"/>
		<path id="XMLID_503_" style="fill:#8A8E8C;" d="M390,130h-90c-5.523,0-10-4.477-10-10V10c0-5.523,4.477-10,10-10h90
			c5.523,0,10,4.477,10,10v110C400,125.523,395.523,130,390,130z"/>
		<path id="XMLID_502_" style="fill:#515056;" d="M385,120h-80c-2.761,0-5-2.239-5-5V15c0-2.761,2.239-5,5-5h80c2.761,0,5,2.239,5,5
			v100C390,117.761,387.761,120,385,120z"/>
		<path id="XMLID_8_" style="fill:#937DC2;" d="M365,70h-40c-2.761,0-5-2.239-5-5V35c0-2.761,2.239-5,5-5h40c2.761,0,5,2.239,5,5v30
			C370,67.761,367.761,70,365,70z"/>
		<path id="XMLID_498_" style="fill:#C8DD7F;" d="M330,95L330,95c0,2.761-2.239,5-5,5l0,0c-2.761,0-5-2.239-5-5l0,0
			c0-2.761,2.239-5,5-5l0,0C327.761,90,330,92.239,330,95z"/>
		<path id="XMLID_500_" style="fill:#9CA09E;" d="M350,95L350,95c0,2.761-2.239,5-5,5l0,0c-2.761,0-5-2.239-5-5l0,0
			c0-2.761,2.239-5,5-5l0,0C347.761,90,350,92.239,350,95z"/>
		<path id="XMLID_501_" style="fill:#9CA09E;" d="M370,95L370,95c0,2.761-2.239,5-5,5l0,0c-2.761,0-5-2.239-5-5l0,0
			c0-2.761,2.239-5,5-5l0,0C367.761,90,370,92.239,370,95z"/>
	</g>
</g>
<g>
</g>
<g>
</g>
<g>
</g>
<g>
</g>
<g>
</g>
<g>
</g>
<g>
</g>
<g>
</g>
<g>
</g>
<g>
</g>
<g>
</g>
<g>
</g>
<g>
</g>
<g>
</g>
<g>
</g>
</svg>
