<?xml version="1.0" encoding="iso-8859-1"?>
<!-- Generator: Adobe Illustrator 19.0.0, SVG Export Plug-In . SVG Version: 6.00 Build 0)  -->
<svg version="1.1" id="Capa_1" xmlns="http://www.w3.org/2000/svg" xmlns:xlink="http://www.w3.org/1999/xlink" x="0px" y="0px"
	 viewBox="0 0 512 512" style="enable-background:new 0 0 512 512;" xml:space="preserve">
<path style="fill:#D6E0E8;" d="M256,72.453H135.586c-2.354,0-4.571,0.557-6.554,1.522c-1.799-0.966-3.813-1.522-5.949-1.522H13.788
	c-7.524,0-13.624,6.72-13.624,15.01V496.99c0,8.289,6.1,15.01,13.624,15.01h109.295c2.136,0,4.15-0.557,5.949-1.522
	c1.982,0.966,4.201,1.522,6.554,1.522h120.413c8.289,0,15.01-6.72,15.01-15.01V87.463C271.01,79.173,264.289,72.453,256,72.453z"/>
<path style="fill:#C3CFD8;" d="M496.825,72.453H377.911h-1.498H269.512c-7.463,0-13.512,6.72-13.512,15.01V512h120.414h1.498
	h118.915c8.289,0,15.01-6.72,15.01-15.01V87.463C511.835,79.173,505.115,72.453,496.825,72.453z"/>
<path style="fill:#31C9F7;" d="M97.228,160.606H54.199c-8.289,0-15.01,6.72-15.01,15.01v281.687c0,8.289,6.72,15.01,15.01,15.01
	h43.028c8.289,0,15.01-6.72,15.01-15.01V175.616C112.238,167.327,105.517,160.606,97.228,160.606z"/>
<path style="fill:#FE4FAE;" d="M217.307,160.606h-43.028c-8.289,0-15.01,6.72-15.01,15.01v281.687c0,8.289,6.72,15.01,15.01,15.01
	h43.028c8.289,0,15.01-6.72,15.01-15.01V175.616C232.317,167.327,225.597,160.606,217.307,160.606z"/>
<path style="fill:#FCBE2D;" d="M337.387,160.606h-43.028c-8.289,0-15.01,6.72-15.01,15.01v281.687c0,8.289,6.72,15.01,15.01,15.01
	h43.028c8.289,0,15.01-6.72,15.01-15.01V175.616C352.397,167.327,345.676,160.606,337.387,160.606z"/>
<path style="fill:#171A23;" d="M457.466,160.606h-43.028c-8.289,0-15.01,6.72-15.01,15.01v281.687c0,8.289,6.72,15.01,15.01,15.01
	h43.028c8.289,0,15.01-6.72,15.01-15.01V175.616C472.476,167.327,465.756,160.606,457.466,160.606z"/>
<path style="fill:#7C828C;" d="M256,0H15.174C6.884,0,0.164,6.72,0.164,15.01v87.463H256c8.289,0,15.01-6.72,15.01-15.01V15.01
	C271.01,6.72,264.289,0,256,0z"/>
<path style="fill:#70757F;" d="M496.825,0H256v102.473h255.836V15.01C511.835,6.72,505.115,0,496.825,0z"/>
<g>
</g>
<g>
</g>
<g>
</g>
<g>
</g>
<g>
</g>
<g>
</g>
<g>
</g>
<g>
</g>
<g>
</g>
<g>
</g>
<g>
</g>
<g>
</g>
<g>
</g>
<g>
</g>
<g>
</g>
</svg>
