<?xml version="1.0" encoding="iso-8859-1"?>
<!-- Generator: Adobe Illustrator 19.0.0, SVG Export Plug-In . SVG Version: 6.00 Build 0)  -->
<svg version="1.1" id="Layer_1" xmlns="http://www.w3.org/2000/svg" x="0px" y="0px"
     viewBox="0 0 512 512" style="enable-background:new 0 0 512 512;" xml:space="preserve">
<rect x="39.724" y="83.862" style="fill:#C4CFE3;" width="17.655" height="52.965"/>
<g>
	<path style="fill:#D4DEED;" d="M476.689,145.655H35.31c-4.875,0-8.828-3.953-8.828-8.828l0,0c0-4.875,3.953-8.828,8.828-8.828
		h441.378c4.875,0,8.828,3.953,8.828,8.828l0,0C485.516,141.704,481.564,145.655,476.689,145.655z"/>
	<path style="fill:#D4DEED;" d="M379.585,384l100.831-54.294c8.578-4.619,13.928-13.575,13.928-23.317v-19.492l-114.758,61.793V384z
		"/>
</g>
<path style="fill:#C4CFE3;" d="M388.422,348.692c-3.143,0-6.185-1.683-7.78-4.644c-2.311-4.294-0.707-9.646,3.586-11.957
	l114.758-61.793c4.289-2.313,9.646-0.707,11.957,3.586c2.311,4.294,0.707,9.646-3.586,11.957l-114.758,61.793
	C391.266,348.352,389.835,348.692,388.422,348.692z"/>
<g>
	<path style="fill:#6F7588;" d="M376.569,507.586h3.783c4.452,0,8.062-3.609,8.062-8.062v-18.421H361.93l6.99,20.97
		C370.017,505.365,373.098,507.586,376.569,507.586z"/>
	<path style="fill:#6F7588;" d="M135.43,507.586h-3.783c-4.452,0-8.062-3.609-8.062-8.062v-18.421h26.483l-6.99,20.97
		C141.981,505.365,138.901,507.586,135.43,507.586z"/>
</g>
<path style="fill:#E1EAF6;" d="M388.413,489.93H123.586c-4.875,0-8.828-3.953-8.828-8.828V83.862
	c0-9.751,7.904-17.655,17.655-17.655h247.172c9.751,0,17.655,7.904,17.655,17.655v397.241
	C397.241,485.979,393.288,489.93,388.413,489.93z"/>
<g>
	<path style="fill:#D4DEED;" d="M361.93,225.103H150.069c-4.875,0-8.828-3.953-8.828-8.828V163.31c0-4.875,3.953-8.828,8.828-8.828
		H361.93c4.875,0,8.828,3.953,8.828,8.828v52.965C370.758,221.152,366.805,225.103,361.93,225.103z"/>
	<path style="fill:#D4DEED;" d="M361.93,463.448H150.069c-4.875,0-8.828-3.953-8.828-8.828V304.552c0-4.875,3.953-8.828,8.828-8.828
		H361.93c4.875,0,8.828,3.953,8.828,8.828V454.62C370.758,459.496,366.805,463.448,361.93,463.448z"/>
</g>
<rect x="141.241" y="339.862" style="fill:#C4CFE3;" width="229.517" height="17.655"/>
<g>
	<path style="fill:#ABB9D3;" d="M276.921,313.379h-41.843c-3.409,0-6.524-1.926-8.047-4.974l-6.341-12.681h70.621l-6.34,12.681
		C283.444,311.454,280.329,313.379,276.921,313.379z"/>
	<path style="fill:#ABB9D3;" d="M276.921,172.138h-41.843c-3.409,0-6.524-1.926-8.047-4.974l-6.341-12.681h70.621l-6.34,12.681
		C283.444,170.213,280.329,172.138,276.921,172.138z"/>
	<path style="fill:#ABB9D3;" d="M276.921,375.172h-41.843c-3.409,0-6.524-1.926-8.047-4.974l-6.341-12.681h70.621l-6.34,12.681
		C283.444,373.247,280.329,375.172,276.921,375.172z"/>
	<path style="fill:#ABB9D3;" d="M276.921,436.965h-41.843c-3.409,0-6.524-1.926-8.047-4.974l-6.341-12.681h70.621l-6.34,12.681
		C283.444,435.04,280.329,436.965,276.921,436.965z"/>
</g>
<rect x="141.241" y="401.655" style="fill:#C4CFE3;" width="229.517" height="17.655"/>
<path style="fill:#D4DEED;" d="M25.84,306.04l88.918,16.167v-44.138H26.483c-4.875,0-8.828,3.953-8.828,8.828v9.335
	C17.655,301.05,21.101,305.178,25.84,306.04z"/>
<path style="fill:#C4CFE3;" d="M114.758,331.034H97.103c-4.875,0-8.828-3.953-8.828-8.828v-35.31c0-4.875,3.953-8.828,8.828-8.828
	h17.655V331.034z"/>
<path style="fill:#D4DEED;" d="M397.241,128H114.758V83.862c0-9.751,7.904-17.655,17.655-17.655h247.172
	c9.751,0,17.655,7.904,17.655,17.655V128z"/>
<path style="fill:#929CB4;" d="M88.276,92.69H8.828C3.953,92.69,0,88.737,0,83.862V13.242c0-4.875,3.953-8.828,8.828-8.828h79.448
	c4.875,0,8.828,3.953,8.828,8.828v70.621C97.103,88.738,93.151,92.69,88.276,92.69z"/>
<path style="fill:#444455;" d="M75.034,22.069H22.069c-2.438,0-4.414,1.976-4.414,4.414v26.483c0,2.438,1.976,4.414,4.414,4.414
	h52.965c2.438,0,4.414-1.976,4.414-4.414V26.483C79.448,24.046,77.472,22.069,75.034,22.069z"/>
<path style="fill:#6F7588;" d="M67.893,75.035H29.21c-1.672,0-3.2,0.945-3.948,2.44L17.655,92.69h61.793l-7.607-15.215
	C71.093,75.979,69.565,75.035,67.893,75.035z"/>
<g>
	<rect x="114.758" y="110.345" style="fill:#C4CFE3;" width="282.482" height="17.655"/>
	<path style="fill:#C4CFE3;" d="M397.241,110.345H285.608c-7.219,0-13.711-4.395-16.393-11.098l-13.216-33.039h123.586
		c9.751,0,17.655,7.904,17.655,17.655V110.345z"/>
</g>
<path style="fill:#ABB9D3;" d="M269.215,99.247c2.681,6.703,9.173,11.098,16.392,11.098h111.633V92.69H266.593L269.215,99.247z"/>
<g>
</g>
<g>
</g>
<g>
</g>
<g>
</g>
<g>
</g>
<g>
</g>
<g>
</g>
<g>
</g>
<g>
</g>
<g>
</g>
<g>
</g>
<g>
</g>
<g>
</g>
<g>
</g>
<g>
</g>
</svg>
