<svg height="512pt" viewBox="0 -27 512.001 512" width="512pt" xmlns="http://www.w3.org/2000/svg"><path d="m191.914062 111.847656-46.96875-60.199218-46.574218 59.667968h.058594c-14.636719 17.714844-23.429688 40.4375-23.429688 65.210938 0 45.222656 29.300781 83.601562 69.953125 97.1875 40.652344-13.585938 69.953125-51.960938 69.953125-97.1875 0-24.527344-8.621094-47.039063-23-64.679688zm0 0" fill="#72d8ff"/><path d="m287.605469 111.847656h.007812l-79.460937-101.847656-29.699219 38.046875 49.78125 63.800781h-.007813c14.375 17.640625 23 40.152344 23 64.679688 0 46.253906-30.652343 85.339844-72.75 98.074218 9.394532 2.84375 19.351563 4.382813 29.675782 4.382813 56.582031 0 102.453125-45.871094 102.453125-102.457031 0-24.527344-8.625-47.039063-23-64.679688zm0 0" fill="#e889c3"/><path d="m383.304688 111.847656h.003906l-79.460938-101.847656-29.253906 37.484375 50.214844 64.363281h-.003906c14.375 17.640625 23 40.152344 23 64.679688 0 46.414062-30.867188 85.613281-73.191407 98.207031 9.265625 2.757813 19.074219 4.246094 29.234375 4.246094 56.585938 0 102.457032-45.867188 102.457032-102.453125 0-24.527344-8.625-47.039063-23-64.679688zm0 0" fill="#ffb954"/><path d="m479 111.847656h.007812l-79.460937-101.847656-26.507813 33.960938 52.96875 67.890624h-.007812c14.375 17.636719 23 40.148438 23 64.679688 0 47.410156-32.210938 87.292969-75.9375 98.980469 8.449219 2.257812 17.324219 3.472656 26.484375 3.472656 56.582031 0 102.453125-45.871094 102.453125-102.453125 0-24.53125-8.625-47.042969-23-64.683594zm0 0" fill="#898998"/><path d="m486.984375 105.820312c-.03125-.039062-.0625-.082031-.09375-.121093l-79.460937-101.851563c-1.894532-2.425781-4.800782-3.847656-7.882813-3.847656s-5.988281 1.417969-7.882813 3.847656l-39.976562 51.214844-39.953125-51.214844c-1.898437-2.425781-4.804687-3.847656-7.886719-3.847656-3.078125 0-5.988281 1.417969-7.882812 3.847656l-39.976563 51.210938-39.953125-51.210938c-1.894531-2.425781-4.804687-3.847656-7.882812-3.847656-3.082032 0-5.988282 1.417969-7.882813 3.847656l-39.964843 51.203125-39.96875-51.203125c-1.894532-2.429687-4.804688-3.847656-7.882813-3.847656-3.082031 0-5.988281 1.421875-7.882813 3.847656l-50.5 64.726563c-3.394531 4.355469-2.621093 10.640625 1.734376 14.035156 4.351562 3.398437 10.636718 2.621094 14.035156-1.730469l42.613281-54.625 39.589844 50.71875c.21875.316406.457031.621094.714843.914063l30.273438 38.789062c.222656.347657.46875.6875.734375 1.007813 13.632813 16.5 21.140625 37.398437 21.140625 58.84375 0 50.980468-41.476562 92.453125-92.453125 92.453125-50.976563.003906-92.453125-41.472657-92.453125-92.453125 0-6.386719.652344-12.761719 1.941406-18.945313 1.125-5.40625-2.34375-10.703125-7.75-11.832031-5.402344-1.121094-10.703125 2.347656-11.828125 7.75-1.566406 7.527344-2.363281 15.273438-2.363281 23.027344 0 62.007812 50.445312 112.457031 112.453125 112.457031 17.097656 0 33.308594-3.84375 47.832031-10.695313 14.890625 7 31.324219 10.695313 47.867188 10.695313 17.09375 0 33.308594-3.84375 47.828125-10.695313 14.890625 7 31.328125 10.695313 47.867187 10.695313 17.097656 0 33.308594-3.84375 47.832032-10.695313 14.890624 7 31.328124 10.695313 47.867187 10.695313 62.007813 0 112.453125-50.449219 112.453125-112.457031 0-25.679688-8.882812-50.777344-25.015625-70.707032zm-305.320313 159.28125c26.308594-20.601562 43.242188-52.644531 43.242188-88.574218 0-25.730469-8.890625-50.824219-25.058594-70.769532-.132812-.203124-.277344-.398437-.429687-.59375l-26.429688-33.863281 35.160157-45.046875 71.371093 91.484375c.109375.144531.21875.289063.332031.429688 13.382813 16.417969 20.753907 37.144531 20.753907 58.359375 0 50.980468-41.476563 92.457031-92.453125 92.457031-8.984375 0-17.925782-1.332031-26.488282-3.882813zm95.699219 0c26.304688-20.601562 43.242188-52.644531 43.242188-88.574218 0-25.6875-8.886719-50.789063-25.027344-70.726563-.027344-.035156-.054687-.066406-.082031-.101562l-26.820313-34.382813 35.171875-45.0625 71.371094 91.480469c.105469.148437.21875.292969.332031.433594 13.382813 16.417969 20.753907 37.144531 20.753907 58.359375 0 50.980468-41.476563 92.457031-92.457032 92.457031-8.980468 0-17.921875-1.332031-26.484375-3.882813zm122.183594 3.882813c-8.984375 0-17.925781-1.332031-26.488281-3.882813 26.308594-20.601562 43.246094-52.644531 43.246094-88.574218 0-25.691406-8.886719-50.792969-25.03125-70.726563-.027344-.035156-.050782-.066406-.078126-.101562l-26.824218-34.382813 35.175781-45.0625 71.355469 91.464844c.113281.152344.226562.300781.347656.449219 13.378906 16.417969 20.75 37.144531 20.75 58.359375 0 50.980468-41.476562 92.457031-92.453125 92.457031zm0 0"/><path d="m106.0625 377.9375h12.78125c5.804688 0 10.527344 4.722656 10.527344 10.527344 0 5.523437 4.476562 10 10 10 5.523437 0 10-4.476563 10-10 0-16.832032-13.695313-30.527344-30.527344-30.527344h-12.78125c-16.832031 0-30.527344 13.695312-30.527344 30.527344v38.945312c0 16.835938 13.695313 30.527344 30.527344 30.527344h12.78125c16.832031 0 30.527344-13.691406 30.527344-30.527344 0-5.523437-4.476563-10-10-10-5.523438 0-10 4.476563-10 10 0 5.804688-4.722656 10.527344-10.527344 10.527344h-12.78125c-5.804688 0-10.527344-4.722656-10.527344-10.527344v-38.945312c0-5.804688 4.722656-10.527344 10.527344-10.527344zm0 0"/><path d="m246.5625 358.699219c-3.738281-1.546875-8.039062-.691407-10.898438 2.167969l-21.261718 21.261718-21.261719-21.261718c-2.859375-2.859376-7.160156-3.714844-10.898437-2.167969-3.734376 1.546875-6.171876 5.195312-6.171876 9.238281v80c0 5.523438 4.476563 10 10 10 5.523438 0 10-4.476562 10-10v-55.855469l11.261719 11.261719c1.875 1.875 4.417969 2.929688 7.070313 2.929688s5.195312-1.054688 7.070312-2.929688l11.261719-11.261719v55.855469c0 5.523438 4.480469 10 10 10 5.523437 0 10-4.476562 10-10v-80c0-4.042969-2.433594-7.691406-6.171875-9.238281zm0 0"/><path d="m336.613281 360.867188-21.261719 21.261718-21.261718-21.261718c-3.90625-3.90625-10.234375-3.90625-14.144532 0-3.902343 3.90625-3.902343 10.238281 0 14.140624l25.40625 25.40625v47.523438c0 5.523438 4.476563 10 10 10 5.519532 0 10-4.476562 10-10v-47.523438l25.40625-25.40625c3.902344-3.902343 3.902344-10.234374 0-14.140624-3.902343-3.90625-10.234374-3.90625-14.144531 0zm0 0"/><path d="m433.375 360.867188c-3.90625-3.90625-10.238281-3.90625-14.144531 0l-22.929688 22.929687v-15.859375c0-5.523438-4.476562-10-10-10-5.519531 0-10 4.476562-10 10v39.996094.011718 39.992188c0 5.523438 4.480469 10 10 10 5.523438 0 10-4.476562 10-10v-15.855469l22.929688 22.929688c1.953125 1.953125 4.511719 2.929687 7.070312 2.929687 2.558594 0 5.121094-.976562 7.070313-2.929687 3.90625-3.90625 3.90625-10.238281 0-14.144531l-32.925782-32.929688 32.925782-32.929688c3.90625-3.902343 3.90625-10.234374.003906-14.140624zm0 0"/><path d="m32.992188 121.847656h.007812c3.3125 0 6.246094-1.605468 8.0625-4.085937l.167969-.214844c3.394531-4.355469 2.613281-10.640625-1.742188-14.035156s-10.640625-2.613281-14.035156 1.742187l-.347656.449219c-2.347657 3.015625-2.773438 7.105469-1.097657 10.539063 1.679688 3.429687 5.164063 5.605468 8.984376 5.605468zm0 0"/></svg>