<?xml version="1.0" encoding="iso-8859-1"?>
<!-- Generator: Adobe Illustrator 19.0.0, SVG Export Plug-In . SVG Version: 6.00 Build 0)  -->
<svg version="1.1" id="Layer_1" xmlns="http://www.w3.org/2000/svg" x="0px" y="0px"
     viewBox="0 0 340 340" style="enable-background:new 0 0 340 340;" xml:space="preserve">
<g id="XMLID_1180_">
	<circle id="XMLID_1181_" style="fill:#45B7EF;" cx="170" cy="170" r="150"/>
	<g id="XMLID_1182_">
		<path id="XMLID_1183_" style="fill:#FAE16E;" d="M170,20C87.157,20,20,87.157,20,170s67.157,150,150,150V20z"/>
		<path id="XMLID_179_" style="fill:#333233;" d="M170,20c82.843,0,150,67.157,150,150s-67.157,150-150,150V20z"/>
		<path id="XMLID_1184_" style="fill:#CF599B;" d="M320,170c0-82.843-67.157-150-150-150v150H320z"/>
		<path id="XMLID_1185_" style="fill:#45B7EF;" d="M170,20C87.157,20,20,87.157,20,170h150V20z"/>
	</g>
	<g id="XMLID_1186_">
		<polygon id="XMLID_1189_" style="fill:#DAE4F4;" points="340,160 180,160 180,0 160,0 160,160 0,160 0,180 160,180 160,340 
			180,340 180,180 340,180 		"/>
		<polygon id="XMLID_1192_" style="fill:#C6D6EA;" points="180,160 180,0 170,0 170,340 180,340 180,180 340,180 340,160 		"/>
	</g>
</g>
<g>
</g>
<g>
</g>
<g>
</g>
<g>
</g>
<g>
</g>
<g>
</g>
<g>
</g>
<g>
</g>
<g>
</g>
<g>
</g>
<g>
</g>
<g>
</g>
<g>
</g>
<g>
</g>
<g>
</g>
</svg>
