<?xml version="1.0" encoding="iso-8859-1"?>
<!-- Generator: Adobe Illustrator 19.0.0, SVG Export Plug-In . SVG Version: 6.00 Build 0)  -->
<svg version="1.1" id="Capa_1" xmlns="http://www.w3.org/2000/svg" x="0px" y="0px"
     viewBox="0 0 512 512" style="enable-background:new 0 0 512 512;" xml:space="preserve">
<g>
	<g>
		<path d="M338.501,0H15.467c-4.199,0-7.604,3.405-7.604,7.604v496.792c0,4.199,3.405,7.604,7.604,7.604h36.122
			c4.199,0,7.604-3.405,7.604-7.604s-3.405-7.604-7.604-7.604H23.071V15.208h307.826v20.267c0,4.199,3.405,7.604,7.604,7.604
			s7.604-3.405,7.604-7.604V7.604C346.105,3.405,342.7,0,338.501,0z"/>
	</g>
</g>
<g>
	<g>
		<path d="M338.5,461.273c-4.199,0-7.604,3.405-7.604,7.604v27.915H76.937c-4.199,0-7.604,3.405-7.604,7.604S72.737,512,76.937,512
			H338.5c4.199,0,7.604-3.405,7.604-7.604v-35.519C346.104,464.678,342.699,461.273,338.5,461.273z"/>
	</g>
</g>
<g>
	<g>
		<path d="M496.533,316.302c-4.199,0-7.604,3.405-7.604,7.604v50.688h-91.121c-4.199,0-7.604,3.405-7.604,7.604
			s3.405,7.604,7.604,7.604h98.725c4.199,0,7.604-3.405,7.604-7.604v-58.292C504.136,319.707,500.732,316.302,496.533,316.302z"/>
	</g>
</g>
<g>
	<g>
		<path d="M496.533,51.561H248.136c-4.199,0-7.604,3.405-7.604,7.604v113.681c0,4.199,3.405,7.604,7.604,7.604
			s7.604-3.405,7.604-7.604V66.769h233.188v231.79c0,4.199,3.405,7.604,7.604,7.604s7.604-3.405,7.604-7.604V59.165
			C504.136,54.965,500.732,51.561,496.533,51.561z"/>
	</g>
</g>
<g>
	<g>
		<path d="M372.461,187.883H210.945c-4.199,0-7.604,3.405-7.604,7.604v248.396c0,4.199,3.405,7.604,7.604,7.604h161.516
			c4.199,0,7.604-3.404,7.604-7.604V195.487C380.065,191.287,376.661,187.883,372.461,187.883z M364.857,436.279H218.549V203.091
			h146.308V436.279z"/>
	</g>
</g>
<g>
	<g>
		<path d="M101.079,112.374v-0.171L79.82,42.81c-0.824-2.472-3.362-4.07-6.467-4.07c-3.143,0-5.588,1.577-6.384,4.125
			l-21.193,68.851c-0.25,0.646-0.25,1.261-0.25,1.577c0,3.217,3.306,5.379,6.394,5.379c2.518,0,4.506-1.403,5.083-3.581l4.119-13.79
			h24.36l4.157,13.91c0.712,2.133,2.606,3.459,4.944,3.459c3.121,0,6.597-2.251,6.597-5.48
			C101.18,112.86,101.128,112.583,101.079,112.374z M64.375,90.445l8.968-29.62l8.893,29.62H64.375z"/>
	</g>
</g>
<g>
	<g>
		<path d="M145.435,76.636c3.872-3.665,6.022-9.574,6.022-16.874c0-13.354-7.305-20.412-21.124-20.412
			c-17.717,0-22.444,11.873-22.444,18.888c0,2.746,0.62,6.394,5.989,6.394c3.569,0,5.785-2.217,5.785-5.785
			c0-3.113,1.36-8.334,10.467-8.334c7.021,0,9.756,2.964,9.756,10.568c0,6.789-1.62,10.467-10.163,10.467
			c-2.94,0-5.074,2.305-5.074,5.481c0,3.167,2.128,5.379,5.176,5.379c8,0,11.89,3.59,11.89,10.975v1.93
			c0,8.785-3.73,12.702-12.092,12.702c-11.458,0-11.788-7.846-11.788-8.74c0-3.368-2.239-5.379-5.988-5.379
			c-3.824,0-5.684,1.992-5.684,6.089c0,9.354,8.258,19.295,23.561,19.295c15.102,0,23.764-8.735,23.764-23.968v-1.93
			C153.49,85.917,150.724,80.206,145.435,76.636z"/>
	</g>
</g>
<g>
	<g>
		<path d="M421.949,161.038v-0.171L400.69,91.474c-0.824-2.472-3.362-4.07-6.467-4.07c-3.143,0-5.588,1.577-6.384,4.125
			l-21.193,68.851c-0.25,0.646-0.25,1.261-0.25,1.577c0,3.217,3.306,5.379,6.394,5.379c2.518,0,4.506-1.403,5.083-3.581
			l4.119-13.789h24.36l4.157,13.91c0.712,2.133,2.606,3.459,4.944,3.459c3.121,0,6.597-2.251,6.597-5.48
			C422.05,161.523,421.997,161.247,421.949,161.038z M385.246,139.107l8.968-29.62l8.893,29.62H385.246z"/>
	</g>
</g>
<g>
	<g>
		<path d="M468.27,138.396h-3.053v-17.069c0-2.94-2.476-5.074-5.886-5.074s-5.886,2.134-5.886,5.074v17.069h-13.249l21.6-42.64
			l0.092-0.204c0.336-0.84,0.486-1.538,0.486-2.262c0-3.109-3.049-5.277-5.785-5.277c-2.317,0-4.341,1.284-5.409,3.42
			l-25.463,50.216c-0.474,0.829-0.714,1.818-0.714,2.938c0,3.058,2.177,5.277,5.175,5.277h23.266v12.295
			c0,2.95,2.531,5.176,5.886,5.176s5.886-2.225,5.886-5.176v-12.295h3.053c2.797,0,5.073-2.596,5.073-5.785
			C473.344,140.84,471.163,138.396,468.27,138.396z"/>
	</g>
</g>
<g>
	<g>
		<path d="M289.647,299.423v-0.171h0l-21.259-69.393c-0.824-2.472-3.362-4.07-6.467-4.07c-3.143,0-5.588,1.577-6.384,4.125
			l-21.193,68.851c-0.25,0.646-0.25,1.261-0.25,1.577c0,3.217,3.306,5.379,6.394,5.379c2.518,0,4.506-1.403,5.083-3.581
			l4.119-13.789h24.36l4.157,13.91c0.712,2.133,2.606,3.459,4.944,3.459c3.121,0,6.597-2.251,6.597-5.48
			C289.748,299.908,289.696,299.631,289.647,299.423z M252.944,277.492l8.968-29.62l8.893,29.62H252.944z"/>
	</g>
</g>
<g>
	<g>
		<path d="M318.395,256.973h-8.362l1.288-19.309h22.211c2.808,0,4.769-2.337,4.769-5.683c0-3.234-2.006-5.582-4.769-5.582h-28.442
			c-0.942,0-4.06,0.342-4.646,4.74l-2.048,29.413l-0.006,0.175c0,0.172-0.024,0.515-0.046,0.858
			c-0.029,0.469-0.056,0.939-0.056,1.174c0,1.526,0.584,5.074,5.988,5.074h14.119c7.932,0,11.788,4.089,11.788,12.499v1.929
			c0,8.616-3.889,12.804-11.89,12.804c-5.437,0-11.787-2.368-11.787-9.046c0-2.6-1.573-5.379-5.989-5.379
			c-3.569,0-5.785,2.256-5.785,5.886c0,9.537,7.405,19.803,23.663,19.803c14.974,0,23.561-8.773,23.561-24.069v-1.929
			C341.956,265.269,333.589,256.973,318.395,256.973z"/>
	</g>
</g>
<g>
</g>
<g>
</g>
<g>
</g>
<g>
</g>
<g>
</g>
<g>
</g>
<g>
</g>
<g>
</g>
<g>
</g>
<g>
</g>
<g>
</g>
<g>
</g>
<g>
</g>
<g>
</g>
<g>
</g>
</svg>
