<?xml version="1.0"?>
<svg xmlns="http://www.w3.org/2000/svg" viewBox="0 0 64 64" width="512" height="512"><g id="Filled_outline" data-name="Filled outline"><rect x="18" y="15" width="28" height="20" style="fill:#7fd0dd"/><rect x="18" y="35" width="28" height="6" style="fill:#4481c3"/><rect x="18" y="41" width="28" height="6" style="fill:#7fd0dd"/><rect x="18" y="47" width="28" height="10" style="fill:#4481c3"/><rect x="18" y="57" width="6" height="4" style="fill:#7fd0dd"/><rect x="40" y="57" width="6" height="4" style="fill:#7fd0dd"/><rect x="30" y="19" width="12" height="12" style="fill:#e8e8e8"/><rect x="18" y="52" width="5" height="2" style="fill:#fff"/><rect x="25" y="52" width="2" height="2" style="fill:#fff"/><polygon points="46 30 61 21 61 28 46 37 46 30" style="fill:#4481c3"/><polygon points="18 30 3 21 3 28 18 37 18 30" style="fill:#4481c3"/><rect x="18" y="3" width="28" height="4" style="fill:#4481c3"/><rect x="18" y="7" width="6" height="8" style="fill:#98a1a1"/><rect x="31" y="41" width="2" height="3" style="fill:#fff"/><rect x="31" y="35" width="2" height="3" style="fill:#fff"/><rect x="25" y="18" width="2" height="2" style="fill:#fff"/><rect x="25" y="22" width="2" height="2" style="fill:#fff"/><path d="M43,18H29V32H43ZM41,30H31V20H41Z"/><rect x="25" y="52" width="2" height="2"/><path d="M61.493,20.13a1,1,0,0,0-1.008.013L47,28.234V14H25V8H47V2H17V28.234L3.515,20.143A1,1,0,0,0,2,21v7a1,1,0,0,0,.485.857L17,37.566V62h8V58H39v4h8V37.566l14.515-8.709A1,1,0,0,0,62,28V21A1,1,0,0,0,61.493,20.13ZM45,34H19V16H45ZM19,4H45V6H19Zm0,4h4v6H19ZM4,22.767l13,7.8v4.667l-13-7.8ZM23,60H19V58h4Zm22,0H41V58h4Zm0-4H19V54h4V52H19V48H45Zm0-10H19V42H31v2h2V42H45ZM19,40V36H31v2h2V36H45v4ZM60,27.434l-13,7.8V30.566l13-7.8Z"/><rect x="25" y="18" width="2" height="2"/><rect x="25" y="22" width="2" height="2"/></g></svg>
