<?xml version="1.0" encoding="iso-8859-1"?>
<!-- Generator: Adobe Illustrator 16.0.0, SVG Export Plug-In . SVG Version: 6.00 Build 0)  -->
<!DOCTYPE svg PUBLIC "-//W3C//DTD SVG 1.1//EN" "http://www.w3.org/Graphics/SVG/1.1/DTD/svg11.dtd">
<svg version="1.1" id="Capa_1" xmlns="http://www.w3.org/2000/svg" x="0px" y="0px"
     width="370.524px" height="370.525px" viewBox="0 0 370.524 370.525"
     style="enable-background:new 0 0 370.524 370.525;"
     xml:space="preserve">
<g>
	<g>
		<path d="M229.055,338.845h26.598v4.78c0,7.465,6.053,13.512,13.512,13.512c7.466,0,13.512-6.047,13.512-13.512v-4.78h54.042v4.78
			c0,7.465,6.053,13.512,13.512,13.512c7.465,0,13.512-6.047,13.512-13.512v-4.78h6.783v-24.411h-141.47V338.845z"/>
		<rect x="229.055" y="279.061" width="141.458" height="22.896"/>
		<rect x="229.055" y="163.583" width="141.458" height="67.647"/>
		<rect x="229.055" y="243.696" width="141.458" height="22.896"/>
		<path d="M201.617,338.845h14.474V53.562H74.625v54.647L21.552,86.273c-7.955-3.285-17.074,0.487-20.365,8.449
			c-3.285,7.956,0.5,17.074,8.449,20.365l64.99,26.856v53.552l-53.073-21.934c-7.955-3.285-17.074,0.493-20.365,8.445
			c-3.291,7.959,0.5,17.074,8.449,20.368l64.99,26.859v109.611h12.678v4.78c0,7.465,6.049,13.512,13.512,13.512
			s13.512-6.047,13.512-13.512v-4.78h60.276v4.78c0,7.465,6.05,13.512,13.512,13.512c7.463,0,13.509-6.047,13.509-13.512v-4.78
			H201.617z"/>
		<path d="M348.707,17.237c-1.315-3.188-4.969-4.683-8.142-3.379l-97.755,40.404h-13.756v66.013h141.458v-33.01
			c0-18.233-15.832-33.009-35.366-33.009h-59.71l69.885-28.884C348.519,24.063,350.022,20.421,348.707,17.237z"/>
	</g>
</g>
<g>
</g>
<g>
</g>
<g>
</g>
<g>
</g>
<g>
</g>
<g>
</g>
<g>
</g>
<g>
</g>
<g>
</g>
<g>
</g>
<g>
</g>
<g>
</g>
<g>
</g>
<g>
</g>
<g>
</g>
</svg>
